<mxfile host="app.diagrams.net" agent="Mozilla/5.0 (Windows NT 10.0; Win64; x64) AppleWebKit/537.36 (KHTML, like Gecko) Chrome/129.0.0.0 Safari/537.36 Edg/129.0.0.0" version="24.7.17">
  <diagram name="Page-1" id="zkoIdfZW4CY1T_tW_s7y">
    <mxGraphModel dx="1737" dy="3305" grid="1" gridSize="10" guides="1" tooltips="1" connect="1" arrows="1" fold="1" page="1" pageScale="1" pageWidth="850" pageHeight="1100" math="0" shadow="0">
      <root>
        <mxCell id="0" />
        <mxCell id="1" parent="0" />
        <mxCell id="ZgJ5rkqm4MpWhBZrzJL_-46" value="Customer" style="shape=umlActor;verticalLabelPosition=bottom;verticalAlign=top;html=1;" vertex="1" parent="1">
          <mxGeometry x="70" y="60" width="60" height="100" as="geometry" />
        </mxCell>
        <mxCell id="ZgJ5rkqm4MpWhBZrzJL_-100" style="edgeStyle=orthogonalEdgeStyle;rounded=0;orthogonalLoop=1;jettySize=auto;html=1;" edge="1" parent="1" source="ZgJ5rkqm4MpWhBZrzJL_-50" target="ZgJ5rkqm4MpWhBZrzJL_-52">
          <mxGeometry relative="1" as="geometry" />
        </mxCell>
        <mxCell id="ZgJ5rkqm4MpWhBZrzJL_-50" value="Seller" style="shape=umlActor;verticalLabelPosition=bottom;verticalAlign=top;html=1;" vertex="1" parent="1">
          <mxGeometry x="70" y="220" width="60" height="100" as="geometry" />
        </mxCell>
        <mxCell id="ZgJ5rkqm4MpWhBZrzJL_-51" value="" style="html=1;whiteSpace=wrap;" vertex="1" parent="1">
          <mxGeometry x="380" y="-40" width="440" height="1090" as="geometry" />
        </mxCell>
        <mxCell id="ZgJ5rkqm4MpWhBZrzJL_-97" style="edgeStyle=orthogonalEdgeStyle;rounded=0;orthogonalLoop=1;jettySize=auto;html=1;entryX=0;entryY=0.5;entryDx=0;entryDy=0;" edge="1" parent="1" source="ZgJ5rkqm4MpWhBZrzJL_-52" target="ZgJ5rkqm4MpWhBZrzJL_-53">
          <mxGeometry relative="1" as="geometry" />
        </mxCell>
        <mxCell id="ZgJ5rkqm4MpWhBZrzJL_-98" style="edgeStyle=orthogonalEdgeStyle;rounded=0;orthogonalLoop=1;jettySize=auto;html=1;entryX=0;entryY=0.5;entryDx=0;entryDy=0;" edge="1" parent="1" source="ZgJ5rkqm4MpWhBZrzJL_-52" target="ZgJ5rkqm4MpWhBZrzJL_-64">
          <mxGeometry relative="1" as="geometry" />
        </mxCell>
        <mxCell id="ZgJ5rkqm4MpWhBZrzJL_-52" value="User" style="shape=umlActor;verticalLabelPosition=bottom;verticalAlign=top;html=1;" vertex="1" parent="1">
          <mxGeometry x="190" y="160" width="60" height="100" as="geometry" />
        </mxCell>
        <mxCell id="ZgJ5rkqm4MpWhBZrzJL_-58" value="" style="edgeStyle=orthogonalEdgeStyle;rounded=0;orthogonalLoop=1;jettySize=auto;html=1;entryX=0;entryY=0.5;entryDx=0;entryDy=0;dashed=1;dashPattern=8 8;" edge="1" parent="1" source="ZgJ5rkqm4MpWhBZrzJL_-53" target="ZgJ5rkqm4MpWhBZrzJL_-55">
          <mxGeometry relative="1" as="geometry" />
        </mxCell>
        <mxCell id="ZgJ5rkqm4MpWhBZrzJL_-60" value="" style="edgeStyle=orthogonalEdgeStyle;rounded=0;orthogonalLoop=1;jettySize=auto;html=1;entryX=0;entryY=0.5;entryDx=0;entryDy=0;dashed=1;dashPattern=12 12;" edge="1" parent="1" source="ZgJ5rkqm4MpWhBZrzJL_-53" target="ZgJ5rkqm4MpWhBZrzJL_-59">
          <mxGeometry relative="1" as="geometry">
            <Array as="points">
              <mxPoint x="620" y="115" />
              <mxPoint x="620" y="115" />
            </Array>
          </mxGeometry>
        </mxCell>
        <mxCell id="ZgJ5rkqm4MpWhBZrzJL_-53" value="Login" style="ellipse;whiteSpace=wrap;html=1;" vertex="1" parent="1">
          <mxGeometry x="425" y="80" width="140" height="70" as="geometry" />
        </mxCell>
        <mxCell id="ZgJ5rkqm4MpWhBZrzJL_-55" value="Username" style="ellipse;whiteSpace=wrap;html=1;" vertex="1" parent="1">
          <mxGeometry x="660" width="140" height="70" as="geometry" />
        </mxCell>
        <mxCell id="ZgJ5rkqm4MpWhBZrzJL_-59" value="Password" style="ellipse;whiteSpace=wrap;html=1;" vertex="1" parent="1">
          <mxGeometry x="660" y="80" width="140" height="70" as="geometry" />
        </mxCell>
        <mxCell id="ZgJ5rkqm4MpWhBZrzJL_-61" value="Login / Registration" style="text;html=1;align=center;verticalAlign=middle;whiteSpace=wrap;rounded=0;" vertex="1" parent="1">
          <mxGeometry x="527.5" y="-30" width="145" height="30" as="geometry" />
        </mxCell>
        <mxCell id="ZgJ5rkqm4MpWhBZrzJL_-62" value="&amp;lt;&amp;lt; include &amp;gt;&amp;gt;" style="text;html=1;align=center;verticalAlign=middle;whiteSpace=wrap;rounded=0;" vertex="1" parent="1">
          <mxGeometry x="570" y="10" width="102.5" height="20" as="geometry" />
        </mxCell>
        <mxCell id="ZgJ5rkqm4MpWhBZrzJL_-63" value="&amp;lt;&amp;lt; include &amp;gt;&amp;gt;" style="text;html=1;align=center;verticalAlign=middle;whiteSpace=wrap;rounded=0;" vertex="1" parent="1">
          <mxGeometry x="565" y="120" width="102.5" height="20" as="geometry" />
        </mxCell>
        <mxCell id="ZgJ5rkqm4MpWhBZrzJL_-78" style="edgeStyle=orthogonalEdgeStyle;rounded=0;orthogonalLoop=1;jettySize=auto;html=1;entryX=0;entryY=0.5;entryDx=0;entryDy=0;dashed=1;dashPattern=8 8;" edge="1" parent="1" source="ZgJ5rkqm4MpWhBZrzJL_-64" target="ZgJ5rkqm4MpWhBZrzJL_-70">
          <mxGeometry relative="1" as="geometry" />
        </mxCell>
        <mxCell id="ZgJ5rkqm4MpWhBZrzJL_-79" style="edgeStyle=orthogonalEdgeStyle;rounded=0;orthogonalLoop=1;jettySize=auto;html=1;entryX=0;entryY=0.5;entryDx=0;entryDy=0;dashed=1;dashPattern=8 8;" edge="1" parent="1" source="ZgJ5rkqm4MpWhBZrzJL_-64" target="ZgJ5rkqm4MpWhBZrzJL_-71">
          <mxGeometry relative="1" as="geometry" />
        </mxCell>
        <mxCell id="ZgJ5rkqm4MpWhBZrzJL_-81" style="edgeStyle=orthogonalEdgeStyle;rounded=0;orthogonalLoop=1;jettySize=auto;html=1;dashed=1;dashPattern=8 8;" edge="1" parent="1" source="ZgJ5rkqm4MpWhBZrzJL_-64" target="ZgJ5rkqm4MpWhBZrzJL_-73">
          <mxGeometry relative="1" as="geometry" />
        </mxCell>
        <mxCell id="ZgJ5rkqm4MpWhBZrzJL_-82" style="edgeStyle=orthogonalEdgeStyle;rounded=0;orthogonalLoop=1;jettySize=auto;html=1;entryX=0;entryY=0.5;entryDx=0;entryDy=0;dashed=1;dashPattern=8 8;" edge="1" parent="1" source="ZgJ5rkqm4MpWhBZrzJL_-64" target="ZgJ5rkqm4MpWhBZrzJL_-74">
          <mxGeometry relative="1" as="geometry" />
        </mxCell>
        <mxCell id="ZgJ5rkqm4MpWhBZrzJL_-83" style="edgeStyle=orthogonalEdgeStyle;rounded=0;orthogonalLoop=1;jettySize=auto;html=1;entryX=0;entryY=0.5;entryDx=0;entryDy=0;dashed=1;dashPattern=8 8;" edge="1" parent="1" source="ZgJ5rkqm4MpWhBZrzJL_-64" target="ZgJ5rkqm4MpWhBZrzJL_-75">
          <mxGeometry relative="1" as="geometry" />
        </mxCell>
        <mxCell id="ZgJ5rkqm4MpWhBZrzJL_-84" style="edgeStyle=orthogonalEdgeStyle;rounded=0;orthogonalLoop=1;jettySize=auto;html=1;entryX=0;entryY=0.5;entryDx=0;entryDy=0;dashed=1;dashPattern=8 8;" edge="1" parent="1" source="ZgJ5rkqm4MpWhBZrzJL_-64" target="ZgJ5rkqm4MpWhBZrzJL_-76">
          <mxGeometry relative="1" as="geometry" />
        </mxCell>
        <mxCell id="ZgJ5rkqm4MpWhBZrzJL_-85" style="edgeStyle=orthogonalEdgeStyle;rounded=0;orthogonalLoop=1;jettySize=auto;html=1;entryX=0;entryY=0.5;entryDx=0;entryDy=0;dashed=1;dashPattern=8 8;" edge="1" parent="1" source="ZgJ5rkqm4MpWhBZrzJL_-64" target="ZgJ5rkqm4MpWhBZrzJL_-77">
          <mxGeometry relative="1" as="geometry" />
        </mxCell>
        <mxCell id="ZgJ5rkqm4MpWhBZrzJL_-87" style="edgeStyle=orthogonalEdgeStyle;rounded=0;orthogonalLoop=1;jettySize=auto;html=1;entryX=0;entryY=0.5;entryDx=0;entryDy=0;dashed=1;dashPattern=8 8;" edge="1" parent="1" source="ZgJ5rkqm4MpWhBZrzJL_-64" target="ZgJ5rkqm4MpWhBZrzJL_-65">
          <mxGeometry relative="1" as="geometry" />
        </mxCell>
        <mxCell id="ZgJ5rkqm4MpWhBZrzJL_-99" style="edgeStyle=orthogonalEdgeStyle;rounded=0;orthogonalLoop=1;jettySize=auto;html=1;entryX=0;entryY=0.5;entryDx=0;entryDy=0;dashed=1;dashPattern=8 8;" edge="1" parent="1" source="ZgJ5rkqm4MpWhBZrzJL_-64" target="ZgJ5rkqm4MpWhBZrzJL_-72">
          <mxGeometry relative="1" as="geometry" />
        </mxCell>
        <mxCell id="ZgJ5rkqm4MpWhBZrzJL_-64" value="Registration" style="ellipse;whiteSpace=wrap;html=1;" vertex="1" parent="1">
          <mxGeometry x="400" y="550" width="140" height="70" as="geometry" />
        </mxCell>
        <mxCell id="ZgJ5rkqm4MpWhBZrzJL_-65" value="First_Name" style="ellipse;whiteSpace=wrap;html=1;" vertex="1" parent="1">
          <mxGeometry x="650" y="215" width="140" height="70" as="geometry" />
        </mxCell>
        <mxCell id="ZgJ5rkqm4MpWhBZrzJL_-70" value="Last_Name" style="ellipse;whiteSpace=wrap;html=1;" vertex="1" parent="1">
          <mxGeometry x="672.5" y="285" width="120" height="80" as="geometry" />
        </mxCell>
        <mxCell id="ZgJ5rkqm4MpWhBZrzJL_-71" value="Email" style="ellipse;whiteSpace=wrap;html=1;" vertex="1" parent="1">
          <mxGeometry x="672.5" y="380" width="120" height="80" as="geometry" />
        </mxCell>
        <mxCell id="ZgJ5rkqm4MpWhBZrzJL_-72" value="Gender" style="ellipse;whiteSpace=wrap;html=1;" vertex="1" parent="1">
          <mxGeometry x="672.5" y="480" width="120" height="80" as="geometry" />
        </mxCell>
        <mxCell id="ZgJ5rkqm4MpWhBZrzJL_-73" value="Street_Address" style="ellipse;whiteSpace=wrap;html=1;" vertex="1" parent="1">
          <mxGeometry x="672.5" y="570" width="120" height="80" as="geometry" />
        </mxCell>
        <mxCell id="ZgJ5rkqm4MpWhBZrzJL_-74" value="Street_Address" style="ellipse;whiteSpace=wrap;html=1;" vertex="1" parent="1">
          <mxGeometry x="672.5" y="650" width="120" height="80" as="geometry" />
        </mxCell>
        <mxCell id="ZgJ5rkqm4MpWhBZrzJL_-75" value="City" style="ellipse;whiteSpace=wrap;html=1;" vertex="1" parent="1">
          <mxGeometry x="672.5" y="740" width="120" height="80" as="geometry" />
        </mxCell>
        <mxCell id="ZgJ5rkqm4MpWhBZrzJL_-76" value="Country" style="ellipse;whiteSpace=wrap;html=1;" vertex="1" parent="1">
          <mxGeometry x="672.5" y="830" width="120" height="80" as="geometry" />
        </mxCell>
        <mxCell id="ZgJ5rkqm4MpWhBZrzJL_-77" value="Postal_Code" style="ellipse;whiteSpace=wrap;html=1;" vertex="1" parent="1">
          <mxGeometry x="672.5" y="920" width="120" height="80" as="geometry" />
        </mxCell>
        <mxCell id="ZgJ5rkqm4MpWhBZrzJL_-86" value="&amp;lt;&amp;lt; include &amp;gt;&amp;gt;" style="text;html=1;align=center;verticalAlign=middle;whiteSpace=wrap;rounded=0;" vertex="1" parent="1">
          <mxGeometry x="557.5" y="230" width="102.5" height="20" as="geometry" />
        </mxCell>
        <mxCell id="ZgJ5rkqm4MpWhBZrzJL_-88" value="&amp;lt;&amp;lt; include &amp;gt;&amp;gt;" style="text;html=1;align=center;verticalAlign=middle;whiteSpace=wrap;rounded=0;" vertex="1" parent="1">
          <mxGeometry x="580" y="310" width="102.5" height="20" as="geometry" />
        </mxCell>
        <mxCell id="ZgJ5rkqm4MpWhBZrzJL_-89" value="&amp;lt;&amp;lt; include &amp;gt;&amp;gt;" style="text;html=1;align=center;verticalAlign=middle;whiteSpace=wrap;rounded=0;" vertex="1" parent="1">
          <mxGeometry x="590" y="400" width="102.5" height="20" as="geometry" />
        </mxCell>
        <mxCell id="ZgJ5rkqm4MpWhBZrzJL_-90" value="&amp;lt;&amp;lt; include &amp;gt;&amp;gt;" style="text;html=1;align=center;verticalAlign=middle;whiteSpace=wrap;rounded=0;" vertex="1" parent="1">
          <mxGeometry x="590" y="500" width="102.5" height="20" as="geometry" />
        </mxCell>
        <mxCell id="ZgJ5rkqm4MpWhBZrzJL_-92" value="&amp;lt;&amp;lt; include &amp;gt;&amp;gt;" style="text;html=1;align=center;verticalAlign=middle;whiteSpace=wrap;rounded=0;" vertex="1" parent="1">
          <mxGeometry x="600" y="575" width="102.5" height="20" as="geometry" />
        </mxCell>
        <mxCell id="ZgJ5rkqm4MpWhBZrzJL_-93" value="&amp;lt;&amp;lt; include &amp;gt;&amp;gt;" style="text;html=1;align=center;verticalAlign=middle;whiteSpace=wrap;rounded=0;" vertex="1" parent="1">
          <mxGeometry x="590" y="660" width="102.5" height="20" as="geometry" />
        </mxCell>
        <mxCell id="ZgJ5rkqm4MpWhBZrzJL_-94" value="&amp;lt;&amp;lt; include &amp;gt;&amp;gt;" style="text;html=1;align=center;verticalAlign=middle;whiteSpace=wrap;rounded=0;" vertex="1" parent="1">
          <mxGeometry x="590" y="750" width="102.5" height="20" as="geometry" />
        </mxCell>
        <mxCell id="ZgJ5rkqm4MpWhBZrzJL_-95" value="&amp;lt;&amp;lt; include &amp;gt;&amp;gt;" style="text;html=1;align=center;verticalAlign=middle;whiteSpace=wrap;rounded=0;" vertex="1" parent="1">
          <mxGeometry x="590" y="840" width="102.5" height="20" as="geometry" />
        </mxCell>
        <mxCell id="ZgJ5rkqm4MpWhBZrzJL_-96" value="&amp;lt;&amp;lt; include &amp;gt;&amp;gt;" style="text;html=1;align=center;verticalAlign=middle;whiteSpace=wrap;rounded=0;" vertex="1" parent="1">
          <mxGeometry x="590" y="970" width="102.5" height="20" as="geometry" />
        </mxCell>
        <mxCell id="ZgJ5rkqm4MpWhBZrzJL_-101" style="edgeStyle=orthogonalEdgeStyle;rounded=0;orthogonalLoop=1;jettySize=auto;html=1;entryX=0.5;entryY=0.5;entryDx=0;entryDy=0;entryPerimeter=0;" edge="1" parent="1" source="ZgJ5rkqm4MpWhBZrzJL_-46" target="ZgJ5rkqm4MpWhBZrzJL_-52">
          <mxGeometry relative="1" as="geometry" />
        </mxCell>
        <mxCell id="ZgJ5rkqm4MpWhBZrzJL_-102" value="Seller" style="shape=umlActor;verticalLabelPosition=bottom;verticalAlign=top;html=1;" vertex="1" parent="1">
          <mxGeometry x="120" y="-775" width="60" height="100" as="geometry" />
        </mxCell>
        <mxCell id="ZgJ5rkqm4MpWhBZrzJL_-103" value="" style="html=1;whiteSpace=wrap;" vertex="1" parent="1">
          <mxGeometry x="360" y="-1270" width="590" height="1090" as="geometry" />
        </mxCell>
        <mxCell id="ZgJ5rkqm4MpWhBZrzJL_-104" value="Products" style="text;html=1;align=center;verticalAlign=middle;whiteSpace=wrap;rounded=0;" vertex="1" parent="1">
          <mxGeometry x="507.5" y="-1260" width="145" height="30" as="geometry" />
        </mxCell>
        <mxCell id="ZgJ5rkqm4MpWhBZrzJL_-114" style="edgeStyle=orthogonalEdgeStyle;rounded=0;orthogonalLoop=1;jettySize=auto;html=1;entryX=0;entryY=0.5;entryDx=0;entryDy=0;dashed=1;dashPattern=8 8;" edge="1" parent="1" source="ZgJ5rkqm4MpWhBZrzJL_-105" target="ZgJ5rkqm4MpWhBZrzJL_-106">
          <mxGeometry relative="1" as="geometry" />
        </mxCell>
        <mxCell id="ZgJ5rkqm4MpWhBZrzJL_-115" style="edgeStyle=orthogonalEdgeStyle;rounded=0;orthogonalLoop=1;jettySize=auto;html=1;entryX=0;entryY=0.5;entryDx=0;entryDy=0;dashed=1;dashPattern=8 8;" edge="1" parent="1" source="ZgJ5rkqm4MpWhBZrzJL_-105" target="ZgJ5rkqm4MpWhBZrzJL_-108">
          <mxGeometry relative="1" as="geometry" />
        </mxCell>
        <mxCell id="ZgJ5rkqm4MpWhBZrzJL_-116" style="edgeStyle=orthogonalEdgeStyle;rounded=0;orthogonalLoop=1;jettySize=auto;html=1;entryX=0;entryY=0.5;entryDx=0;entryDy=0;dashed=1;dashPattern=8 8;" edge="1" parent="1" source="ZgJ5rkqm4MpWhBZrzJL_-105" target="ZgJ5rkqm4MpWhBZrzJL_-109">
          <mxGeometry relative="1" as="geometry" />
        </mxCell>
        <mxCell id="ZgJ5rkqm4MpWhBZrzJL_-117" style="edgeStyle=orthogonalEdgeStyle;rounded=0;orthogonalLoop=1;jettySize=auto;html=1;entryX=0;entryY=0.5;entryDx=0;entryDy=0;dashed=1;dashPattern=8 8;" edge="1" parent="1" source="ZgJ5rkqm4MpWhBZrzJL_-105" target="ZgJ5rkqm4MpWhBZrzJL_-110">
          <mxGeometry relative="1" as="geometry" />
        </mxCell>
        <mxCell id="ZgJ5rkqm4MpWhBZrzJL_-118" style="edgeStyle=orthogonalEdgeStyle;rounded=0;orthogonalLoop=1;jettySize=auto;html=1;entryX=0;entryY=0.5;entryDx=0;entryDy=0;dashed=1;dashPattern=8 8;" edge="1" parent="1" source="ZgJ5rkqm4MpWhBZrzJL_-105" target="ZgJ5rkqm4MpWhBZrzJL_-111">
          <mxGeometry relative="1" as="geometry" />
        </mxCell>
        <mxCell id="ZgJ5rkqm4MpWhBZrzJL_-119" style="edgeStyle=orthogonalEdgeStyle;rounded=0;orthogonalLoop=1;jettySize=auto;html=1;entryX=0;entryY=0.5;entryDx=0;entryDy=0;dashed=1;dashPattern=8 8;" edge="1" parent="1" source="ZgJ5rkqm4MpWhBZrzJL_-105" target="ZgJ5rkqm4MpWhBZrzJL_-112">
          <mxGeometry relative="1" as="geometry" />
        </mxCell>
        <mxCell id="ZgJ5rkqm4MpWhBZrzJL_-120" style="edgeStyle=orthogonalEdgeStyle;rounded=0;orthogonalLoop=1;jettySize=auto;html=1;entryX=0;entryY=0.5;entryDx=0;entryDy=0;dashed=1;dashPattern=8 8;" edge="1" parent="1" source="ZgJ5rkqm4MpWhBZrzJL_-105" target="ZgJ5rkqm4MpWhBZrzJL_-113">
          <mxGeometry relative="1" as="geometry" />
        </mxCell>
        <mxCell id="ZgJ5rkqm4MpWhBZrzJL_-123" style="edgeStyle=orthogonalEdgeStyle;rounded=0;orthogonalLoop=1;jettySize=auto;html=1;endArrow=none;endFill=0;startArrow=block;startFill=1;" edge="1" parent="1" source="ZgJ5rkqm4MpWhBZrzJL_-105" target="ZgJ5rkqm4MpWhBZrzJL_-102">
          <mxGeometry relative="1" as="geometry" />
        </mxCell>
        <mxCell id="ZgJ5rkqm4MpWhBZrzJL_-105" value="Add Products" style="ellipse;whiteSpace=wrap;html=1;" vertex="1" parent="1">
          <mxGeometry x="387.5" y="-760" width="140" height="70" as="geometry" />
        </mxCell>
        <mxCell id="ZgJ5rkqm4MpWhBZrzJL_-106" value="Cost" style="ellipse;whiteSpace=wrap;html=1;" vertex="1" parent="1">
          <mxGeometry x="710" y="-1180" width="140" height="70" as="geometry" />
        </mxCell>
        <mxCell id="ZgJ5rkqm4MpWhBZrzJL_-108" value="Brand_Name" style="ellipse;whiteSpace=wrap;html=1;" vertex="1" parent="1">
          <mxGeometry x="710" y="-1070" width="140" height="70" as="geometry" />
        </mxCell>
        <mxCell id="ZgJ5rkqm4MpWhBZrzJL_-109" value="Name" style="ellipse;whiteSpace=wrap;html=1;" vertex="1" parent="1">
          <mxGeometry x="710" y="-950" width="140" height="70" as="geometry" />
        </mxCell>
        <mxCell id="ZgJ5rkqm4MpWhBZrzJL_-110" value="Category" style="ellipse;whiteSpace=wrap;html=1;" vertex="1" parent="1">
          <mxGeometry x="710" y="-810" width="140" height="70" as="geometry" />
        </mxCell>
        <mxCell id="ZgJ5rkqm4MpWhBZrzJL_-111" value="Retail_Price" style="ellipse;whiteSpace=wrap;html=1;" vertex="1" parent="1">
          <mxGeometry x="710" y="-660" width="140" height="70" as="geometry" />
        </mxCell>
        <mxCell id="ZgJ5rkqm4MpWhBZrzJL_-112" value="Departement" style="ellipse;whiteSpace=wrap;html=1;" vertex="1" parent="1">
          <mxGeometry x="710" y="-530" width="140" height="70" as="geometry" />
        </mxCell>
        <mxCell id="ZgJ5rkqm4MpWhBZrzJL_-113" value="SKU" style="ellipse;whiteSpace=wrap;html=1;" vertex="1" parent="1">
          <mxGeometry x="710" y="-400" width="140" height="70" as="geometry" />
        </mxCell>
        <mxCell id="ZgJ5rkqm4MpWhBZrzJL_-124" value="&amp;lt;&amp;lt; include &amp;gt;&amp;gt;" style="text;html=1;align=center;verticalAlign=middle;whiteSpace=wrap;rounded=0;" vertex="1" parent="1">
          <mxGeometry x="610" y="-1170" width="102.5" height="20" as="geometry" />
        </mxCell>
        <mxCell id="ZgJ5rkqm4MpWhBZrzJL_-126" value="&amp;lt;&amp;lt; include &amp;gt;&amp;gt;" style="text;html=1;align=center;verticalAlign=middle;whiteSpace=wrap;rounded=0;" vertex="1" parent="1">
          <mxGeometry x="620" y="-1060" width="102.5" height="20" as="geometry" />
        </mxCell>
        <mxCell id="ZgJ5rkqm4MpWhBZrzJL_-127" value="&amp;lt;&amp;lt; include &amp;gt;&amp;gt;" style="text;html=1;align=center;verticalAlign=middle;whiteSpace=wrap;rounded=0;" vertex="1" parent="1">
          <mxGeometry x="620" y="-940" width="102.5" height="20" as="geometry" />
        </mxCell>
        <mxCell id="ZgJ5rkqm4MpWhBZrzJL_-128" value="&amp;lt;&amp;lt; include &amp;gt;&amp;gt;" style="text;html=1;align=center;verticalAlign=middle;whiteSpace=wrap;rounded=0;" vertex="1" parent="1">
          <mxGeometry x="620" y="-800" width="102.5" height="20" as="geometry" />
        </mxCell>
        <mxCell id="ZgJ5rkqm4MpWhBZrzJL_-129" value="&amp;lt;&amp;lt; include &amp;gt;&amp;gt;" style="text;html=1;align=center;verticalAlign=middle;whiteSpace=wrap;rounded=0;" vertex="1" parent="1">
          <mxGeometry x="620" y="-650" width="102.5" height="20" as="geometry" />
        </mxCell>
        <mxCell id="ZgJ5rkqm4MpWhBZrzJL_-130" value="&amp;lt;&amp;lt; include &amp;gt;&amp;gt;" style="text;html=1;align=center;verticalAlign=middle;whiteSpace=wrap;rounded=0;" vertex="1" parent="1">
          <mxGeometry x="620" y="-520" width="102.5" height="20" as="geometry" />
        </mxCell>
        <mxCell id="ZgJ5rkqm4MpWhBZrzJL_-131" value="&amp;lt;&amp;lt; include &amp;gt;&amp;gt;" style="text;html=1;align=center;verticalAlign=middle;whiteSpace=wrap;rounded=0;" vertex="1" parent="1">
          <mxGeometry x="620" y="-380" width="102.5" height="20" as="geometry" />
        </mxCell>
        <mxCell id="ZgJ5rkqm4MpWhBZrzJL_-132" value="Distributor" style="shape=umlActor;verticalLabelPosition=bottom;verticalAlign=top;html=1;" vertex="1" parent="1">
          <mxGeometry x="1030" y="-1155" width="60" height="100" as="geometry" />
        </mxCell>
        <mxCell id="ZgJ5rkqm4MpWhBZrzJL_-133" value="" style="html=1;whiteSpace=wrap;" vertex="1" parent="1">
          <mxGeometry x="1205" y="-1250" width="590" height="260" as="geometry" />
        </mxCell>
        <mxCell id="ZgJ5rkqm4MpWhBZrzJL_-136" value="" style="edgeStyle=orthogonalEdgeStyle;rounded=0;orthogonalLoop=1;jettySize=auto;html=1;dashed=1;dashPattern=8 8;" edge="1" parent="1" source="ZgJ5rkqm4MpWhBZrzJL_-134" target="ZgJ5rkqm4MpWhBZrzJL_-135">
          <mxGeometry relative="1" as="geometry" />
        </mxCell>
        <mxCell id="ZgJ5rkqm4MpWhBZrzJL_-138" style="edgeStyle=orthogonalEdgeStyle;rounded=0;orthogonalLoop=1;jettySize=auto;html=1;startArrow=block;startFill=1;endArrow=none;endFill=0;" edge="1" parent="1" source="ZgJ5rkqm4MpWhBZrzJL_-134" target="ZgJ5rkqm4MpWhBZrzJL_-132">
          <mxGeometry relative="1" as="geometry" />
        </mxCell>
        <mxCell id="ZgJ5rkqm4MpWhBZrzJL_-134" value="Distribution Center" style="ellipse;whiteSpace=wrap;html=1;" vertex="1" parent="1">
          <mxGeometry x="1310" y="-1140" width="140" height="70" as="geometry" />
        </mxCell>
        <mxCell id="ZgJ5rkqm4MpWhBZrzJL_-135" value="Name" style="ellipse;whiteSpace=wrap;html=1;" vertex="1" parent="1">
          <mxGeometry x="1542.5" y="-1140" width="140" height="70" as="geometry" />
        </mxCell>
        <mxCell id="ZgJ5rkqm4MpWhBZrzJL_-139" value="Distribution" style="text;html=1;align=center;verticalAlign=middle;whiteSpace=wrap;rounded=0;" vertex="1" parent="1">
          <mxGeometry x="1427.5" y="-1230" width="145" height="30" as="geometry" />
        </mxCell>
        <mxCell id="ZgJ5rkqm4MpWhBZrzJL_-140" value="&amp;lt;&amp;lt; include &amp;gt;&amp;gt;" style="text;html=1;align=center;verticalAlign=middle;whiteSpace=wrap;rounded=0;" vertex="1" parent="1">
          <mxGeometry x="1440" y="-1140" width="102.5" height="20" as="geometry" />
        </mxCell>
        <mxCell id="ZgJ5rkqm4MpWhBZrzJL_-144" value="" style="html=1;whiteSpace=wrap;" vertex="1" parent="1">
          <mxGeometry x="1130" y="-970" width="975" height="890" as="geometry" />
        </mxCell>
        <mxCell id="ZgJ5rkqm4MpWhBZrzJL_-153" style="edgeStyle=orthogonalEdgeStyle;rounded=0;orthogonalLoop=1;jettySize=auto;html=1;entryX=0;entryY=0.5;entryDx=0;entryDy=0;" edge="1" parent="1" source="ZgJ5rkqm4MpWhBZrzJL_-145" target="ZgJ5rkqm4MpWhBZrzJL_-146">
          <mxGeometry relative="1" as="geometry" />
        </mxCell>
        <mxCell id="ZgJ5rkqm4MpWhBZrzJL_-154" style="edgeStyle=orthogonalEdgeStyle;rounded=0;orthogonalLoop=1;jettySize=auto;html=1;entryX=0;entryY=0.5;entryDx=0;entryDy=0;" edge="1" parent="1" source="ZgJ5rkqm4MpWhBZrzJL_-145" target="ZgJ5rkqm4MpWhBZrzJL_-149">
          <mxGeometry relative="1" as="geometry" />
        </mxCell>
        <mxCell id="ZgJ5rkqm4MpWhBZrzJL_-155" style="edgeStyle=orthogonalEdgeStyle;rounded=0;orthogonalLoop=1;jettySize=auto;html=1;entryX=0;entryY=0.5;entryDx=0;entryDy=0;" edge="1" parent="1" source="ZgJ5rkqm4MpWhBZrzJL_-145" target="ZgJ5rkqm4MpWhBZrzJL_-151">
          <mxGeometry relative="1" as="geometry">
            <mxPoint x="1412.5" y="-650" as="targetPoint" />
            <Array as="points">
              <mxPoint x="1262.5" y="-735" />
              <mxPoint x="1262.5" y="-650" />
            </Array>
          </mxGeometry>
        </mxCell>
        <mxCell id="ZgJ5rkqm4MpWhBZrzJL_-145" value="Seller" style="shape=umlActor;verticalLabelPosition=bottom;verticalAlign=top;html=1;" vertex="1" parent="1">
          <mxGeometry x="1032.5" y="-785" width="60" height="100" as="geometry" />
        </mxCell>
        <mxCell id="ZgJ5rkqm4MpWhBZrzJL_-196" style="edgeStyle=orthogonalEdgeStyle;rounded=0;orthogonalLoop=1;jettySize=auto;html=1;entryX=0;entryY=0.5;entryDx=0;entryDy=0;dashed=1;dashPattern=8 8;" edge="1" parent="1" source="ZgJ5rkqm4MpWhBZrzJL_-146" target="ZgJ5rkqm4MpWhBZrzJL_-195">
          <mxGeometry relative="1" as="geometry" />
        </mxCell>
        <mxCell id="ZgJ5rkqm4MpWhBZrzJL_-146" value="Open Seller Page" style="ellipse;whiteSpace=wrap;html=1;" vertex="1" parent="1">
          <mxGeometry x="1435" y="-860" width="140" height="70" as="geometry" />
        </mxCell>
        <mxCell id="ZgJ5rkqm4MpWhBZrzJL_-147" value="Inventory Items" style="text;html=1;align=center;verticalAlign=middle;whiteSpace=wrap;rounded=0;" vertex="1" parent="1">
          <mxGeometry x="1410" y="-950" width="145" height="30" as="geometry" />
        </mxCell>
        <mxCell id="ZgJ5rkqm4MpWhBZrzJL_-149" value="Looking Product Detail" style="ellipse;whiteSpace=wrap;html=1;" vertex="1" parent="1">
          <mxGeometry x="1427.5" y="-770" width="140" height="70" as="geometry" />
        </mxCell>
        <mxCell id="ZgJ5rkqm4MpWhBZrzJL_-183" style="edgeStyle=orthogonalEdgeStyle;rounded=0;orthogonalLoop=1;jettySize=auto;html=1;entryX=0;entryY=0.5;entryDx=0;entryDy=0;dashed=1;dashPattern=8 8;" edge="1" parent="1" source="ZgJ5rkqm4MpWhBZrzJL_-151" target="ZgJ5rkqm4MpWhBZrzJL_-177">
          <mxGeometry relative="1" as="geometry" />
        </mxCell>
        <mxCell id="ZgJ5rkqm4MpWhBZrzJL_-184" style="edgeStyle=orthogonalEdgeStyle;rounded=0;orthogonalLoop=1;jettySize=auto;html=1;entryX=0;entryY=0.5;entryDx=0;entryDy=0;dashed=1;dashPattern=8 8;" edge="1" parent="1" source="ZgJ5rkqm4MpWhBZrzJL_-151" target="ZgJ5rkqm4MpWhBZrzJL_-178">
          <mxGeometry relative="1" as="geometry" />
        </mxCell>
        <mxCell id="ZgJ5rkqm4MpWhBZrzJL_-185" style="edgeStyle=orthogonalEdgeStyle;rounded=0;orthogonalLoop=1;jettySize=auto;html=1;entryX=0;entryY=0.5;entryDx=0;entryDy=0;dashed=1;dashPattern=8 8;" edge="1" parent="1" source="ZgJ5rkqm4MpWhBZrzJL_-151" target="ZgJ5rkqm4MpWhBZrzJL_-179">
          <mxGeometry relative="1" as="geometry" />
        </mxCell>
        <mxCell id="ZgJ5rkqm4MpWhBZrzJL_-186" style="edgeStyle=orthogonalEdgeStyle;rounded=0;orthogonalLoop=1;jettySize=auto;html=1;entryX=0;entryY=0.5;entryDx=0;entryDy=0;dashed=1;dashPattern=8 8;" edge="1" parent="1" source="ZgJ5rkqm4MpWhBZrzJL_-151" target="ZgJ5rkqm4MpWhBZrzJL_-180">
          <mxGeometry relative="1" as="geometry" />
        </mxCell>
        <mxCell id="ZgJ5rkqm4MpWhBZrzJL_-187" style="edgeStyle=orthogonalEdgeStyle;rounded=0;orthogonalLoop=1;jettySize=auto;html=1;entryX=0;entryY=0.5;entryDx=0;entryDy=0;dashed=1;dashPattern=8 8;" edge="1" parent="1" source="ZgJ5rkqm4MpWhBZrzJL_-151" target="ZgJ5rkqm4MpWhBZrzJL_-181">
          <mxGeometry relative="1" as="geometry" />
        </mxCell>
        <mxCell id="ZgJ5rkqm4MpWhBZrzJL_-188" style="edgeStyle=orthogonalEdgeStyle;rounded=0;orthogonalLoop=1;jettySize=auto;html=1;entryX=0;entryY=0.5;entryDx=0;entryDy=0;dashed=1;dashPattern=8 8;" edge="1" parent="1" source="ZgJ5rkqm4MpWhBZrzJL_-151" target="ZgJ5rkqm4MpWhBZrzJL_-182">
          <mxGeometry relative="1" as="geometry" />
        </mxCell>
        <mxCell id="ZgJ5rkqm4MpWhBZrzJL_-151" value="Check Product Inventory" style="ellipse;whiteSpace=wrap;html=1;" vertex="1" parent="1">
          <mxGeometry x="1418.75" y="-685" width="162.5" height="70" as="geometry" />
        </mxCell>
        <mxCell id="ZgJ5rkqm4MpWhBZrzJL_-159" style="edgeStyle=orthogonalEdgeStyle;rounded=0;orthogonalLoop=1;jettySize=auto;html=1;endArrow=none;endFill=0;startArrow=classic;startFill=1;" edge="1" parent="1" source="ZgJ5rkqm4MpWhBZrzJL_-157" target="ZgJ5rkqm4MpWhBZrzJL_-102">
          <mxGeometry relative="1" as="geometry" />
        </mxCell>
        <mxCell id="ZgJ5rkqm4MpWhBZrzJL_-157" value="Open Seller Page" style="ellipse;whiteSpace=wrap;html=1;" vertex="1" parent="1">
          <mxGeometry x="417.5" y="-1100" width="140" height="70" as="geometry" />
        </mxCell>
        <mxCell id="ZgJ5rkqm4MpWhBZrzJL_-160" value="" style="html=1;whiteSpace=wrap;" vertex="1" parent="1">
          <mxGeometry x="1197.5" y="270" width="992.5" height="730" as="geometry" />
        </mxCell>
        <mxCell id="ZgJ5rkqm4MpWhBZrzJL_-161" value="Event" style="text;html=1;align=center;verticalAlign=middle;whiteSpace=wrap;rounded=0;" vertex="1" parent="1">
          <mxGeometry x="1622.5" y="280" width="145" height="30" as="geometry" />
        </mxCell>
        <mxCell id="ZgJ5rkqm4MpWhBZrzJL_-171" style="edgeStyle=orthogonalEdgeStyle;rounded=0;orthogonalLoop=1;jettySize=auto;html=1;entryX=0;entryY=0.5;entryDx=0;entryDy=0;" edge="1" parent="1" source="ZgJ5rkqm4MpWhBZrzJL_-162" target="ZgJ5rkqm4MpWhBZrzJL_-163">
          <mxGeometry relative="1" as="geometry" />
        </mxCell>
        <mxCell id="ZgJ5rkqm4MpWhBZrzJL_-172" style="edgeStyle=orthogonalEdgeStyle;rounded=0;orthogonalLoop=1;jettySize=auto;html=1;entryX=0;entryY=0.5;entryDx=0;entryDy=0;" edge="1" parent="1" source="ZgJ5rkqm4MpWhBZrzJL_-162" target="ZgJ5rkqm4MpWhBZrzJL_-164">
          <mxGeometry relative="1" as="geometry" />
        </mxCell>
        <mxCell id="ZgJ5rkqm4MpWhBZrzJL_-173" style="edgeStyle=orthogonalEdgeStyle;rounded=0;orthogonalLoop=1;jettySize=auto;html=1;entryX=0;entryY=0.5;entryDx=0;entryDy=0;" edge="1" parent="1" source="ZgJ5rkqm4MpWhBZrzJL_-162" target="ZgJ5rkqm4MpWhBZrzJL_-165">
          <mxGeometry relative="1" as="geometry" />
        </mxCell>
        <mxCell id="ZgJ5rkqm4MpWhBZrzJL_-174" style="edgeStyle=orthogonalEdgeStyle;rounded=0;orthogonalLoop=1;jettySize=auto;html=1;entryX=0;entryY=0.5;entryDx=0;entryDy=0;" edge="1" parent="1" source="ZgJ5rkqm4MpWhBZrzJL_-162" target="ZgJ5rkqm4MpWhBZrzJL_-166">
          <mxGeometry relative="1" as="geometry" />
        </mxCell>
        <mxCell id="ZgJ5rkqm4MpWhBZrzJL_-175" style="edgeStyle=orthogonalEdgeStyle;rounded=0;orthogonalLoop=1;jettySize=auto;html=1;entryX=0;entryY=0.5;entryDx=0;entryDy=0;" edge="1" parent="1" source="ZgJ5rkqm4MpWhBZrzJL_-162" target="ZgJ5rkqm4MpWhBZrzJL_-167">
          <mxGeometry relative="1" as="geometry" />
        </mxCell>
        <mxCell id="ZgJ5rkqm4MpWhBZrzJL_-176" style="edgeStyle=orthogonalEdgeStyle;rounded=0;orthogonalLoop=1;jettySize=auto;html=1;entryX=0;entryY=0.5;entryDx=0;entryDy=0;" edge="1" parent="1" source="ZgJ5rkqm4MpWhBZrzJL_-162" target="ZgJ5rkqm4MpWhBZrzJL_-168">
          <mxGeometry relative="1" as="geometry" />
        </mxCell>
        <mxCell id="ZgJ5rkqm4MpWhBZrzJL_-162" value="Customer" style="shape=umlActor;verticalLabelPosition=bottom;verticalAlign=top;html=1;" vertex="1" parent="1">
          <mxGeometry x="1050" y="570" width="60" height="100" as="geometry" />
        </mxCell>
        <mxCell id="ZgJ5rkqm4MpWhBZrzJL_-240" style="edgeStyle=orthogonalEdgeStyle;rounded=0;orthogonalLoop=1;jettySize=auto;html=1;entryX=0;entryY=0.5;entryDx=0;entryDy=0;dashed=1;dashPattern=8 8;" edge="1" parent="1" source="ZgJ5rkqm4MpWhBZrzJL_-163" target="ZgJ5rkqm4MpWhBZrzJL_-198">
          <mxGeometry relative="1" as="geometry" />
        </mxCell>
        <mxCell id="ZgJ5rkqm4MpWhBZrzJL_-246" style="edgeStyle=orthogonalEdgeStyle;rounded=0;orthogonalLoop=1;jettySize=auto;html=1;entryX=0.5;entryY=0;entryDx=0;entryDy=0;dashed=1;dashPattern=8 8;endArrow=none;endFill=0;" edge="1" parent="1" source="ZgJ5rkqm4MpWhBZrzJL_-163" target="ZgJ5rkqm4MpWhBZrzJL_-244">
          <mxGeometry relative="1" as="geometry" />
        </mxCell>
        <mxCell id="ZgJ5rkqm4MpWhBZrzJL_-163" value="Homepage" style="ellipse;whiteSpace=wrap;html=1;" vertex="1" parent="1">
          <mxGeometry x="1320" y="330" width="140" height="70" as="geometry" />
        </mxCell>
        <mxCell id="ZgJ5rkqm4MpWhBZrzJL_-249" style="edgeStyle=orthogonalEdgeStyle;rounded=0;orthogonalLoop=1;jettySize=auto;html=1;entryX=0.5;entryY=0;entryDx=0;entryDy=0;dashed=1;dashPattern=8 8;endArrow=none;endFill=0;" edge="1" parent="1" source="ZgJ5rkqm4MpWhBZrzJL_-164" target="ZgJ5rkqm4MpWhBZrzJL_-244">
          <mxGeometry relative="1" as="geometry" />
        </mxCell>
        <mxCell id="ZgJ5rkqm4MpWhBZrzJL_-164" value="Seach Products" style="ellipse;whiteSpace=wrap;html=1;" vertex="1" parent="1">
          <mxGeometry x="1320" y="430" width="140" height="70" as="geometry" />
        </mxCell>
        <mxCell id="ZgJ5rkqm4MpWhBZrzJL_-250" style="edgeStyle=orthogonalEdgeStyle;rounded=0;orthogonalLoop=1;jettySize=auto;html=1;entryX=0.5;entryY=0;entryDx=0;entryDy=0;dashed=1;dashPattern=8 8;endArrow=none;endFill=0;" edge="1" parent="1" source="ZgJ5rkqm4MpWhBZrzJL_-165" target="ZgJ5rkqm4MpWhBZrzJL_-244">
          <mxGeometry relative="1" as="geometry" />
        </mxCell>
        <mxCell id="ZgJ5rkqm4MpWhBZrzJL_-165" value="Looking Products Detail" style="ellipse;whiteSpace=wrap;html=1;" vertex="1" parent="1">
          <mxGeometry x="1320" y="530" width="140" height="70" as="geometry" />
        </mxCell>
        <mxCell id="ZgJ5rkqm4MpWhBZrzJL_-251" style="edgeStyle=orthogonalEdgeStyle;rounded=0;orthogonalLoop=1;jettySize=auto;html=1;entryX=0.5;entryY=0;entryDx=0;entryDy=0;dashed=1;dashPattern=8 8;endArrow=none;endFill=0;" edge="1" parent="1" source="ZgJ5rkqm4MpWhBZrzJL_-166" target="ZgJ5rkqm4MpWhBZrzJL_-244">
          <mxGeometry relative="1" as="geometry" />
        </mxCell>
        <mxCell id="ZgJ5rkqm4MpWhBZrzJL_-166" value="Add To Shopping Cart" style="ellipse;whiteSpace=wrap;html=1;" vertex="1" parent="1">
          <mxGeometry x="1320" y="630" width="140" height="70" as="geometry" />
        </mxCell>
        <mxCell id="ZgJ5rkqm4MpWhBZrzJL_-252" style="edgeStyle=orthogonalEdgeStyle;rounded=0;orthogonalLoop=1;jettySize=auto;html=1;entryX=0.5;entryY=0;entryDx=0;entryDy=0;dashed=1;dashPattern=8 8;endArrow=none;endFill=0;" edge="1" parent="1" source="ZgJ5rkqm4MpWhBZrzJL_-167" target="ZgJ5rkqm4MpWhBZrzJL_-244">
          <mxGeometry relative="1" as="geometry" />
        </mxCell>
        <mxCell id="ZgJ5rkqm4MpWhBZrzJL_-167" value="Check Out Products" style="ellipse;whiteSpace=wrap;html=1;" vertex="1" parent="1">
          <mxGeometry x="1320" y="720" width="140" height="70" as="geometry" />
        </mxCell>
        <mxCell id="ZgJ5rkqm4MpWhBZrzJL_-253" style="edgeStyle=orthogonalEdgeStyle;rounded=0;orthogonalLoop=1;jettySize=auto;html=1;entryX=0.5;entryY=0;entryDx=0;entryDy=0;dashed=1;dashPattern=8 8;endArrow=none;endFill=0;" edge="1" parent="1" source="ZgJ5rkqm4MpWhBZrzJL_-168" target="ZgJ5rkqm4MpWhBZrzJL_-244">
          <mxGeometry relative="1" as="geometry" />
        </mxCell>
        <mxCell id="ZgJ5rkqm4MpWhBZrzJL_-168" value="Log Out" style="ellipse;whiteSpace=wrap;html=1;" vertex="1" parent="1">
          <mxGeometry x="1320" y="820" width="140" height="70" as="geometry" />
        </mxCell>
        <mxCell id="ZgJ5rkqm4MpWhBZrzJL_-177" value="Product Name" style="ellipse;whiteSpace=wrap;html=1;" vertex="1" parent="1">
          <mxGeometry x="1730" y="-685" width="140" height="70" as="geometry" />
        </mxCell>
        <mxCell id="ZgJ5rkqm4MpWhBZrzJL_-178" value="Product Brand Name" style="ellipse;whiteSpace=wrap;html=1;" vertex="1" parent="1">
          <mxGeometry x="1730" y="-585" width="140" height="70" as="geometry" />
        </mxCell>
        <mxCell id="ZgJ5rkqm4MpWhBZrzJL_-179" value="Product Retail Price" style="ellipse;whiteSpace=wrap;html=1;" vertex="1" parent="1">
          <mxGeometry x="1730" y="-480" width="162.5" height="70" as="geometry" />
        </mxCell>
        <mxCell id="ZgJ5rkqm4MpWhBZrzJL_-180" value="Product Departemen" style="ellipse;whiteSpace=wrap;html=1;" vertex="1" parent="1">
          <mxGeometry x="1730" y="-375" width="162.5" height="70" as="geometry" />
        </mxCell>
        <mxCell id="ZgJ5rkqm4MpWhBZrzJL_-181" value="Product SKU" style="ellipse;whiteSpace=wrap;html=1;" vertex="1" parent="1">
          <mxGeometry x="1730" y="-280" width="162.5" height="70" as="geometry" />
        </mxCell>
        <mxCell id="ZgJ5rkqm4MpWhBZrzJL_-182" value="Check Product Inventory" style="ellipse;whiteSpace=wrap;html=1;" vertex="1" parent="1">
          <mxGeometry x="1730" y="-165" width="162.5" height="70" as="geometry" />
        </mxCell>
        <mxCell id="ZgJ5rkqm4MpWhBZrzJL_-189" value="&amp;lt;&amp;lt; include &amp;gt;&amp;gt;" style="text;html=1;align=center;verticalAlign=middle;whiteSpace=wrap;rounded=0;" vertex="1" parent="1">
          <mxGeometry x="1627.5" y="-680" width="102.5" height="20" as="geometry" />
        </mxCell>
        <mxCell id="ZgJ5rkqm4MpWhBZrzJL_-190" value="&amp;lt;&amp;lt; include &amp;gt;&amp;gt;" style="text;html=1;align=center;verticalAlign=middle;whiteSpace=wrap;rounded=0;" vertex="1" parent="1">
          <mxGeometry x="1642.5" y="-575" width="102.5" height="20" as="geometry" />
        </mxCell>
        <mxCell id="ZgJ5rkqm4MpWhBZrzJL_-191" value="&amp;lt;&amp;lt; include &amp;gt;&amp;gt;" style="text;html=1;align=center;verticalAlign=middle;whiteSpace=wrap;rounded=0;" vertex="1" parent="1">
          <mxGeometry x="1641.25" y="-470" width="102.5" height="20" as="geometry" />
        </mxCell>
        <mxCell id="ZgJ5rkqm4MpWhBZrzJL_-192" value="&amp;lt;&amp;lt; include &amp;gt;&amp;gt;" style="text;html=1;align=center;verticalAlign=middle;whiteSpace=wrap;rounded=0;" vertex="1" parent="1">
          <mxGeometry x="1641.25" y="-365" width="102.5" height="20" as="geometry" />
        </mxCell>
        <mxCell id="ZgJ5rkqm4MpWhBZrzJL_-193" value="&amp;lt;&amp;lt; include &amp;gt;&amp;gt;" style="text;html=1;align=center;verticalAlign=middle;whiteSpace=wrap;rounded=0;" vertex="1" parent="1">
          <mxGeometry x="1642.5" y="-275" width="102.5" height="20" as="geometry" />
        </mxCell>
        <mxCell id="ZgJ5rkqm4MpWhBZrzJL_-194" value="&amp;lt;&amp;lt; include &amp;gt;&amp;gt;" style="text;html=1;align=center;verticalAlign=middle;whiteSpace=wrap;rounded=0;" vertex="1" parent="1">
          <mxGeometry x="1650" y="-155" width="102.5" height="20" as="geometry" />
        </mxCell>
        <mxCell id="ZgJ5rkqm4MpWhBZrzJL_-195" value="Login" style="ellipse;whiteSpace=wrap;html=1;" vertex="1" parent="1">
          <mxGeometry x="1710" y="-860" width="140" height="70" as="geometry" />
        </mxCell>
        <mxCell id="ZgJ5rkqm4MpWhBZrzJL_-197" value="&amp;lt;&amp;lt; include &amp;gt;&amp;gt;" style="text;html=1;align=center;verticalAlign=middle;whiteSpace=wrap;rounded=0;" vertex="1" parent="1">
          <mxGeometry x="1590" y="-850" width="102.5" height="20" as="geometry" />
        </mxCell>
        <mxCell id="ZgJ5rkqm4MpWhBZrzJL_-198" value="Login" style="ellipse;whiteSpace=wrap;html=1;" vertex="1" parent="1">
          <mxGeometry x="1608.75" y="340" width="140" height="70" as="geometry" />
        </mxCell>
        <mxCell id="ZgJ5rkqm4MpWhBZrzJL_-199" style="edgeStyle=orthogonalEdgeStyle;rounded=0;orthogonalLoop=1;jettySize=auto;html=1;entryX=1;entryY=0.5;entryDx=0;entryDy=0;" edge="1" parent="1" source="ZgJ5rkqm4MpWhBZrzJL_-202" target="ZgJ5rkqm4MpWhBZrzJL_-203">
          <mxGeometry relative="1" as="geometry" />
        </mxCell>
        <mxCell id="ZgJ5rkqm4MpWhBZrzJL_-200" style="edgeStyle=orthogonalEdgeStyle;rounded=0;orthogonalLoop=1;jettySize=auto;html=1;entryX=1;entryY=0.5;entryDx=0;entryDy=0;" edge="1" parent="1" source="ZgJ5rkqm4MpWhBZrzJL_-202" target="ZgJ5rkqm4MpWhBZrzJL_-204">
          <mxGeometry relative="1" as="geometry" />
        </mxCell>
        <mxCell id="ZgJ5rkqm4MpWhBZrzJL_-206" style="edgeStyle=orthogonalEdgeStyle;rounded=0;orthogonalLoop=1;jettySize=auto;html=1;entryX=1;entryY=0.5;entryDx=0;entryDy=0;" edge="1" parent="1" source="ZgJ5rkqm4MpWhBZrzJL_-202" target="ZgJ5rkqm4MpWhBZrzJL_-205">
          <mxGeometry relative="1" as="geometry">
            <Array as="points">
              <mxPoint x="2160" y="640" />
              <mxPoint x="2160" y="695" />
            </Array>
          </mxGeometry>
        </mxCell>
        <mxCell id="ZgJ5rkqm4MpWhBZrzJL_-202" value="Seller" style="shape=umlActor;verticalLabelPosition=bottom;verticalAlign=top;html=1;" vertex="1" parent="1">
          <mxGeometry x="2320" y="590" width="60" height="100" as="geometry" />
        </mxCell>
        <mxCell id="ZgJ5rkqm4MpWhBZrzJL_-241" style="edgeStyle=orthogonalEdgeStyle;rounded=0;orthogonalLoop=1;jettySize=auto;html=1;dashed=1;dashPattern=8 8;" edge="1" parent="1" source="ZgJ5rkqm4MpWhBZrzJL_-203" target="ZgJ5rkqm4MpWhBZrzJL_-198">
          <mxGeometry relative="1" as="geometry" />
        </mxCell>
        <mxCell id="ZgJ5rkqm4MpWhBZrzJL_-263" style="edgeStyle=orthogonalEdgeStyle;rounded=0;orthogonalLoop=1;jettySize=auto;html=1;endArrow=none;endFill=0;dashed=1;dashPattern=8 8;" edge="1" parent="1" source="ZgJ5rkqm4MpWhBZrzJL_-203" target="ZgJ5rkqm4MpWhBZrzJL_-245">
          <mxGeometry relative="1" as="geometry" />
        </mxCell>
        <mxCell id="ZgJ5rkqm4MpWhBZrzJL_-203" value="Open Seller Page" style="ellipse;whiteSpace=wrap;html=1;" vertex="1" parent="1">
          <mxGeometry x="1860" y="410" width="140" height="70" as="geometry" />
        </mxCell>
        <mxCell id="ZgJ5rkqm4MpWhBZrzJL_-264" style="edgeStyle=orthogonalEdgeStyle;rounded=0;orthogonalLoop=1;jettySize=auto;html=1;endArrow=none;endFill=0;dashed=1;dashPattern=8 8;" edge="1" parent="1" source="ZgJ5rkqm4MpWhBZrzJL_-204" target="ZgJ5rkqm4MpWhBZrzJL_-245">
          <mxGeometry relative="1" as="geometry" />
        </mxCell>
        <mxCell id="ZgJ5rkqm4MpWhBZrzJL_-204" value="Looking Product Detail" style="ellipse;whiteSpace=wrap;html=1;" vertex="1" parent="1">
          <mxGeometry x="1860" y="530" width="140" height="70" as="geometry" />
        </mxCell>
        <mxCell id="ZgJ5rkqm4MpWhBZrzJL_-265" style="edgeStyle=orthogonalEdgeStyle;rounded=0;orthogonalLoop=1;jettySize=auto;html=1;entryX=0;entryY=0.5;entryDx=0;entryDy=0;endArrow=none;endFill=0;dashed=1;" edge="1" parent="1" source="ZgJ5rkqm4MpWhBZrzJL_-205" target="ZgJ5rkqm4MpWhBZrzJL_-245">
          <mxGeometry relative="1" as="geometry" />
        </mxCell>
        <mxCell id="ZgJ5rkqm4MpWhBZrzJL_-205" value="Check Product Inventory" style="ellipse;whiteSpace=wrap;html=1;" vertex="1" parent="1">
          <mxGeometry x="1860" y="660" width="162.5" height="70" as="geometry" />
        </mxCell>
        <mxCell id="ZgJ5rkqm4MpWhBZrzJL_-209" value="User_Id" style="ellipse;whiteSpace=wrap;html=1;" vertex="1" parent="1">
          <mxGeometry x="1612.5" y="430" width="140" height="70" as="geometry" />
        </mxCell>
        <mxCell id="ZgJ5rkqm4MpWhBZrzJL_-210" value="IP_Address" style="ellipse;whiteSpace=wrap;html=1;" vertex="1" parent="1">
          <mxGeometry x="1612.5" y="520" width="140" height="70" as="geometry" />
        </mxCell>
        <mxCell id="ZgJ5rkqm4MpWhBZrzJL_-211" value="Browser" style="ellipse;whiteSpace=wrap;html=1;" vertex="1" parent="1">
          <mxGeometry x="1612.5" y="610" width="140" height="70" as="geometry" />
        </mxCell>
        <mxCell id="ZgJ5rkqm4MpWhBZrzJL_-212" value="Traffic Source" style="ellipse;whiteSpace=wrap;html=1;" vertex="1" parent="1">
          <mxGeometry x="1612.5" y="700" width="140" height="70" as="geometry" />
        </mxCell>
        <mxCell id="ZgJ5rkqm4MpWhBZrzJL_-213" value="URI" style="ellipse;whiteSpace=wrap;html=1;" vertex="1" parent="1">
          <mxGeometry x="1612.5" y="790" width="140" height="70" as="geometry" />
        </mxCell>
        <mxCell id="ZgJ5rkqm4MpWhBZrzJL_-214" value="Event Type" style="ellipse;whiteSpace=wrap;html=1;" vertex="1" parent="1">
          <mxGeometry x="1622.5" y="880" width="140" height="70" as="geometry" />
        </mxCell>
        <mxCell id="ZgJ5rkqm4MpWhBZrzJL_-242" value="&amp;lt;&amp;lt; include &amp;gt;&amp;gt;" style="text;html=1;align=center;verticalAlign=middle;whiteSpace=wrap;rounded=0;" vertex="1" parent="1">
          <mxGeometry x="1472.5" y="330" width="102.5" height="20" as="geometry" />
        </mxCell>
        <mxCell id="ZgJ5rkqm4MpWhBZrzJL_-243" value="&amp;lt;&amp;lt; include &amp;gt;&amp;gt;" style="text;html=1;align=center;verticalAlign=middle;whiteSpace=wrap;rounded=0;" vertex="1" parent="1">
          <mxGeometry x="1767.5" y="350" width="102.5" height="20" as="geometry" />
        </mxCell>
        <mxCell id="ZgJ5rkqm4MpWhBZrzJL_-254" style="edgeStyle=orthogonalEdgeStyle;rounded=0;orthogonalLoop=1;jettySize=auto;html=1;entryX=0;entryY=0.5;entryDx=0;entryDy=0;dashed=1;dashPattern=8 8;" edge="1" parent="1" source="ZgJ5rkqm4MpWhBZrzJL_-244" target="ZgJ5rkqm4MpWhBZrzJL_-209">
          <mxGeometry relative="1" as="geometry" />
        </mxCell>
        <mxCell id="ZgJ5rkqm4MpWhBZrzJL_-255" style="edgeStyle=orthogonalEdgeStyle;rounded=0;orthogonalLoop=1;jettySize=auto;html=1;dashed=1;dashPattern=8 8;" edge="1" parent="1" source="ZgJ5rkqm4MpWhBZrzJL_-244" target="ZgJ5rkqm4MpWhBZrzJL_-210">
          <mxGeometry relative="1" as="geometry" />
        </mxCell>
        <mxCell id="ZgJ5rkqm4MpWhBZrzJL_-256" style="edgeStyle=orthogonalEdgeStyle;rounded=0;orthogonalLoop=1;jettySize=auto;html=1;dashed=1;dashPattern=8 8;" edge="1" parent="1" source="ZgJ5rkqm4MpWhBZrzJL_-244" target="ZgJ5rkqm4MpWhBZrzJL_-211">
          <mxGeometry relative="1" as="geometry" />
        </mxCell>
        <mxCell id="ZgJ5rkqm4MpWhBZrzJL_-257" style="edgeStyle=orthogonalEdgeStyle;rounded=0;orthogonalLoop=1;jettySize=auto;html=1;entryX=0;entryY=0.5;entryDx=0;entryDy=0;dashed=1;dashPattern=8 8;" edge="1" parent="1" source="ZgJ5rkqm4MpWhBZrzJL_-244" target="ZgJ5rkqm4MpWhBZrzJL_-212">
          <mxGeometry relative="1" as="geometry" />
        </mxCell>
        <mxCell id="ZgJ5rkqm4MpWhBZrzJL_-258" style="edgeStyle=orthogonalEdgeStyle;rounded=0;orthogonalLoop=1;jettySize=auto;html=1;entryX=0;entryY=0.5;entryDx=0;entryDy=0;dashed=1;dashPattern=8 8;" edge="1" parent="1" source="ZgJ5rkqm4MpWhBZrzJL_-244" target="ZgJ5rkqm4MpWhBZrzJL_-213">
          <mxGeometry relative="1" as="geometry" />
        </mxCell>
        <mxCell id="ZgJ5rkqm4MpWhBZrzJL_-259" style="edgeStyle=orthogonalEdgeStyle;rounded=0;orthogonalLoop=1;jettySize=auto;html=1;entryX=0;entryY=0.5;entryDx=0;entryDy=0;dashed=1;dashPattern=8 8;" edge="1" parent="1" source="ZgJ5rkqm4MpWhBZrzJL_-244" target="ZgJ5rkqm4MpWhBZrzJL_-214">
          <mxGeometry relative="1" as="geometry" />
        </mxCell>
        <mxCell id="ZgJ5rkqm4MpWhBZrzJL_-244" value="&amp;lt;&amp;lt; include &amp;gt;&amp;gt;" style="text;html=1;align=center;verticalAlign=middle;whiteSpace=wrap;rounded=0;rotation=-90;" vertex="1" parent="1">
          <mxGeometry x="1490" y="610" width="102.5" height="20" as="geometry" />
        </mxCell>
        <mxCell id="ZgJ5rkqm4MpWhBZrzJL_-266" style="edgeStyle=orthogonalEdgeStyle;rounded=0;orthogonalLoop=1;jettySize=auto;html=1;entryX=1;entryY=0.5;entryDx=0;entryDy=0;dashed=1;dashPattern=8 8;" edge="1" parent="1" source="ZgJ5rkqm4MpWhBZrzJL_-245" target="ZgJ5rkqm4MpWhBZrzJL_-209">
          <mxGeometry relative="1" as="geometry" />
        </mxCell>
        <mxCell id="ZgJ5rkqm4MpWhBZrzJL_-268" style="edgeStyle=orthogonalEdgeStyle;rounded=0;orthogonalLoop=1;jettySize=auto;html=1;entryX=1;entryY=0.5;entryDx=0;entryDy=0;dashed=1;dashPattern=8 8;" edge="1" parent="1" source="ZgJ5rkqm4MpWhBZrzJL_-245" target="ZgJ5rkqm4MpWhBZrzJL_-210">
          <mxGeometry relative="1" as="geometry" />
        </mxCell>
        <mxCell id="ZgJ5rkqm4MpWhBZrzJL_-269" style="edgeStyle=orthogonalEdgeStyle;rounded=0;orthogonalLoop=1;jettySize=auto;html=1;entryX=1;entryY=0.5;entryDx=0;entryDy=0;dashed=1;dashPattern=8 8;" edge="1" parent="1" source="ZgJ5rkqm4MpWhBZrzJL_-245" target="ZgJ5rkqm4MpWhBZrzJL_-211">
          <mxGeometry relative="1" as="geometry" />
        </mxCell>
        <mxCell id="ZgJ5rkqm4MpWhBZrzJL_-271" style="edgeStyle=orthogonalEdgeStyle;rounded=0;orthogonalLoop=1;jettySize=auto;html=1;entryX=1;entryY=0.5;entryDx=0;entryDy=0;dashed=1;dashPattern=8 8;" edge="1" parent="1" source="ZgJ5rkqm4MpWhBZrzJL_-245" target="ZgJ5rkqm4MpWhBZrzJL_-213">
          <mxGeometry relative="1" as="geometry" />
        </mxCell>
        <mxCell id="ZgJ5rkqm4MpWhBZrzJL_-272" style="edgeStyle=orthogonalEdgeStyle;rounded=0;orthogonalLoop=1;jettySize=auto;html=1;entryX=1;entryY=0.5;entryDx=0;entryDy=0;dashed=1;dashPattern=8 8;" edge="1" parent="1" source="ZgJ5rkqm4MpWhBZrzJL_-245" target="ZgJ5rkqm4MpWhBZrzJL_-214">
          <mxGeometry relative="1" as="geometry" />
        </mxCell>
        <mxCell id="ZgJ5rkqm4MpWhBZrzJL_-245" value="&amp;lt;&amp;lt; include &amp;gt;&amp;gt;" style="text;html=1;align=center;verticalAlign=middle;whiteSpace=wrap;rounded=0;rotation=-90;" vertex="1" parent="1">
          <mxGeometry x="1767.5" y="620" width="102.5" height="20" as="geometry" />
        </mxCell>
        <mxCell id="ZgJ5rkqm4MpWhBZrzJL_-270" style="edgeStyle=orthogonalEdgeStyle;rounded=0;orthogonalLoop=1;jettySize=auto;html=1;entryX=0.996;entryY=0.617;entryDx=0;entryDy=0;entryPerimeter=0;dashed=1;dashPattern=8 8;" edge="1" parent="1" source="ZgJ5rkqm4MpWhBZrzJL_-245" target="ZgJ5rkqm4MpWhBZrzJL_-212">
          <mxGeometry relative="1" as="geometry" />
        </mxCell>
      </root>
    </mxGraphModel>
  </diagram>
</mxfile>
